<mxfile host="app.diagrams.net" modified="2023-09-25T16:02:40.649Z" agent="Mozilla/5.0 (Windows NT 10.0; Win64; x64) AppleWebKit/537.36 (KHTML, like Gecko) Chrome/116.0.0.0 Safari/537.36" version="21.8.2" etag="9kL32t1outDcz6HlsG11" type="github">
  <diagram name="Page-1" id="LGjFbYEWDcHZCsC7Ehmj">
    <mxGraphModel>
      <root>
        <mxCell id="0" />
        <mxCell id="1" parent="0" />
      </root>
    </mxGraphModel>
  </diagram>
</mxfile>
